<svg width="96" height="102" viewBox="0 0 96 102" fill="none" xmlns="http://www.w3.org/2000/svg">
<path d="M79.6482 76.1918V78.4141L69.0363 72.6581L59.1803 67.3097L59.2004 65.0273L69.0363 70.3972L79.6482 76.1918Z" fill="url(#paint0_linear_4_195)"/>
<path d="M82.6015 69.9067V74.2069L74.6526 69.8581L59.1803 61.3908V57.0734L74.6526 65.5522L82.6015 69.9067Z" fill="url(#paint1_linear_4_195)"/>
<path d="M70.6717 13.0692V16.8961L66.7411 14.4206L66.7009 14.3949L61.4079 11.0643V54.6337L59.1803 53.3982V5.47565L61.4079 6.94717L66.7411 10.4723L70.6717 13.0692Z" fill="url(#paint2_linear_4_195)"/>
<path d="M59.1817 70.2914L67.2585 77.9608V85.4457H59.1817V70.2914Z" fill="url(#paint3_linear_4_195)"/>
<path d="M77.6347 83.4765V85.2312H69.1095V75.4282L77.6347 83.4765Z" fill="url(#paint4_linear_4_195)"/>
<path d="M70.2636 18.7709V21.139L64.4977 17.5596V15.18L70.2636 18.7709Z" fill="url(#paint5_linear_4_195)"/>
<path d="M70.2636 24.7313V27.0995L64.4977 23.5201V21.139L70.2636 24.7313Z" fill="url(#paint6_linear_4_195)"/>
<path d="M70.2636 30.6904V33.0599L64.4977 29.4805V27.0995L70.2636 30.6904Z" fill="url(#paint7_linear_4_195)"/>
<path d="M70.2636 36.6508V39.019L64.4977 35.4395V33.0599L70.2636 36.6508Z" fill="url(#paint8_linear_4_195)"/>
<path d="M70.2636 42.6098V44.9794L64.4977 41.4V39.019L70.2636 42.6098Z" fill="url(#paint9_linear_4_195)"/>
<path d="M70.2636 48.5703V50.9399L64.4977 47.359V44.9794L70.2636 48.5703Z" fill="url(#paint10_linear_4_195)"/>
<path d="M70.2636 54.5308V56.899L64.4977 53.3196V50.9399L70.2636 54.5308Z" fill="url(#paint11_linear_4_195)"/>
<path d="M70.2636 21.9814L68.1725 22.9238V20.6829L70.2636 21.9814Z" fill="url(#paint12_linear_4_195)"/>
<path d="M69.7002 27.9418L67.6092 28.8842V26.6433L69.7002 27.9418Z" fill="url(#paint13_linear_4_195)"/>
<path d="M69.7002 33.9008L67.6092 34.8432V32.6038L69.7002 33.9008Z" fill="url(#paint14_linear_4_195)"/>
<path d="M69.7002 39.8613L67.6092 40.8037V38.5628L69.7002 39.8613Z" fill="url(#paint15_linear_4_195)"/>
<path d="M69.7002 45.8217L67.6092 46.7627V44.5233L69.7002 45.8217Z" fill="url(#paint16_linear_4_195)"/>
<path d="M69.7002 51.7808L67.6092 52.7232V50.4838L69.7002 51.7808Z" fill="url(#paint17_linear_4_195)"/>
<path d="M69.7002 57.7412L67.6092 58.6836V56.4427L69.7002 57.7412Z" fill="url(#paint18_linear_4_195)"/>
<path d="M90.2212 87.1632H59.1803V91.0543H90.2212V87.1632Z" fill="url(#paint19_linear_4_195)"/>
<path d="M28.5806 35.0478V91.0544H27.1707V37.1042L23.2861 39.1692V37.8621L28.5806 35.0478Z" fill="url(#paint20_linear_4_195)"/>
<path d="M28.582 30.2599V35.0477L35.9804 39.2392V91.0558H43.3803V23.3141L28.582 30.2599ZM42.0021 28.0905L29.9559 33.9666V31.2252L42.0021 25.352V28.092V28.0905Z" fill="url(#paint21_linear_4_195)"/>
<path d="M26.2941 39.7097V42.0865L25.14 42.8015L23.049 44.1014V41.7304L26.2941 39.7097Z" fill="url(#paint22_linear_4_195)"/>
<path d="M26.2941 45.6716V48.0455L25.14 48.7634L23.049 50.059V47.6923L26.2941 45.6716Z" fill="url(#paint23_linear_4_195)"/>
<path d="M26.2941 51.6306V54.0059L25.14 54.7224L23.049 56.0209V53.6499L26.2941 51.6306Z" fill="url(#paint24_linear_4_195)"/>
<path d="M26.2941 57.5925V59.965L25.14 60.6829L23.049 61.9799V59.6118L26.2941 57.5925Z" fill="url(#paint25_linear_4_195)"/>
<path d="M26.2941 63.5502V65.9269L25.14 66.6419L23.049 67.9419V65.5708L26.2941 63.5502Z" fill="url(#paint26_linear_4_195)"/>
<path d="M26.2941 69.512V71.8859L25.14 72.6038L23.049 73.8994V71.5327L26.2941 69.512Z" fill="url(#paint27_linear_4_195)"/>
<path d="M23.6138 44.662L25.7048 45.6044V43.3635L23.6138 44.662Z" fill="url(#paint28_linear_4_195)"/>
<path d="M23.6138 50.621L25.7048 51.5634V49.324L23.6138 50.621Z" fill="url(#paint29_linear_4_195)"/>
<path d="M23.6138 56.5815L25.7048 57.5239V55.283L23.6138 56.5815Z" fill="url(#paint30_linear_4_195)"/>
<path d="M23.6138 62.542L25.7048 63.4844V61.2435L23.6138 62.542Z" fill="url(#paint31_linear_4_195)"/>
<path d="M23.6138 68.501L25.7048 69.4434V67.2039L23.6138 68.501Z" fill="url(#paint32_linear_4_195)"/>
<path d="M23.6138 74.4615L25.7048 75.4039V73.163L23.6138 74.4615Z" fill="url(#paint33_linear_4_195)"/>
<path d="M23.049 91.0544V77.4903L26.2941 75.4711V91.0529" fill="url(#paint34_linear_4_195)"/>
<path d="M24.66 87.1632H5.78021V91.053H24.66V87.1632Z" fill="url(#paint35_linear_4_195)"/>
<path d="M44.3245 15.9437V18.6837L56.3664 11.4376V8.69904L44.3245 15.9437Z" fill="url(#paint36_linear_4_195)"/>
<path d="M43.3789 15.1557V23.3142L53.0106 28.0634V58.1503L56.1364 59.7748L57.3091 60.4141V6.27509L43.3789 15.1557ZM44.3245 18.6837V15.9451L56.3678 8.70046V11.439L44.3245 18.6837Z" fill="url(#paint37_linear_4_195)"/>
<path d="M57.3091 66.1257V63.992L53.0121 61.6453V91.0544H57.3091V87.1632V66.1257Z" fill="url(#paint38_linear_4_195)"/>
<path style="mix-blend-mode:multiply" d="M69.0363 70.3972V72.6581L59.1803 67.3097L59.2004 65.0273L69.0363 70.3972Z" fill="url(#paint39_linear_4_195)"/>
<path style="mix-blend-mode:multiply" d="M74.6526 65.5522V69.8581L59.1803 61.3908V57.0734L74.6526 65.5522Z" fill="url(#paint40_linear_4_195)"/>
<path style="mix-blend-mode:multiply" d="M61.4079 6.94717L59.1803 5.47565V9.74722V21.139H61.4079V11.1215L66.7009 14.3949L66.7411 14.4206V10.4723L61.4079 6.94717Z" fill="url(#paint41_linear_4_195)"/>
<path style="mix-blend-mode:multiply" d="M78.3461 87.1632H59.1803V91.0543H78.3461V87.1632Z" fill="url(#paint42_linear_4_195)"/>
<path style="mix-blend-mode:multiply" d="M59.1817 70.2914L67.2585 77.9608V85.4457H59.1817V70.2914Z" fill="url(#paint43_linear_4_195)"/>
<path style="mix-blend-mode:multiply" d="M77.6347 83.4765V85.2312H69.1095V75.4282L77.6347 83.4765Z" fill="url(#paint44_linear_4_195)"/>
<path d="M59.2665 1.55878H59.0969V99.6319H59.2665V1.55878Z" fill="url(#paint45_linear_4_195)"/>
<path d="M43.4636 0H43.2941V102H43.4636V0Z" fill="url(#paint46_linear_4_195)"/>
<path d="M28.6668 20.6829H28.4972V102H28.6668V20.6829Z" fill="url(#paint47_linear_4_195)"/>
<path d="M23.1654 75.4039H22.9958V97.1278H23.1654V75.4039Z" fill="url(#paint48_linear_4_195)"/>
<path d="M59.2665 68.3237H59.0969V94.2706H59.2665V68.3237Z" fill="url(#paint49_linear_4_195)"/>
<path d="M69.1943 73.8995H69.0247V94.2692H69.1943V73.8995Z" fill="url(#paint50_linear_4_195)"/>
<path d="M90.306 83.9284H90.1364V94.2706H90.306V83.9284Z" fill="url(#paint51_linear_4_195)"/>
<path d="M5.865 83.9284H5.69542V94.2706H5.865V83.9284Z" fill="url(#paint52_linear_4_195)"/>
<path d="M70.7565 11.9266H70.5869V17.2865H70.7565V11.9266Z" fill="url(#paint53_linear_4_195)"/>
<path d="M70.3484 18.319H70.1788V21.4894H70.3484V18.319Z" fill="url(#paint54_linear_4_195)"/>
<path d="M70.3484 24.2037H70.1788V27.3741H70.3484V24.2037Z" fill="url(#paint55_linear_4_195)"/>
<path d="M70.3484 30.0898H70.1788V33.2602H70.3484V30.0898Z" fill="url(#paint56_linear_4_195)"/>
<path d="M70.3484 36.0402H70.1788V39.2107H70.3484V36.0402Z" fill="url(#paint57_linear_4_195)"/>
<path d="M70.3484 41.9893H70.1788V45.1597H70.3484V41.9893Z" fill="url(#paint58_linear_4_195)"/>
<path d="M70.3484 47.9397H70.1788V51.1101H70.3484V47.9397Z" fill="url(#paint59_linear_4_195)"/>
<path d="M70.3484 53.9202H70.1788V57.0906H70.3484V53.9202Z" fill="url(#paint60_linear_4_195)"/>
<path d="M23.1654 30.473H22.9958V40.5206H23.1654V30.473Z" fill="url(#paint61_linear_4_195)"/>
<path d="M63.178 2.44182L37.4236 18.8501L37.515 18.9922L63.2695 2.58394L63.178 2.44182Z" fill="url(#paint62_linear_4_195)"/>
<path d="M54.7359 2.43658L54.6421 2.57715L73.3886 14.9661L73.4824 14.8255L54.7359 2.43658Z" fill="url(#paint63_linear_4_195)"/>
<path d="M48.3411 51.1019L48.2595 51.2499L91.5736 74.9053L91.6552 74.7574L48.3411 51.1019Z" fill="url(#paint64_linear_4_195)"/>
<path d="M48.3408 58.9985L48.2592 59.1464L91.5734 82.8019L91.6549 82.6539L48.3408 58.9985Z" fill="url(#paint65_linear_4_195)"/>
<path d="M46.2186 21.8889L25.6673 31.5381L25.7396 31.6907L46.291 22.0416L46.2186 21.8889Z" fill="url(#paint66_linear_4_195)"/>
<path d="M96 91.0515H0V91.2203H96V91.0515Z" fill="url(#paint67_linear_4_195)"/>
<path d="M96 87.0788H0V87.2476H96V87.0788Z" fill="url(#paint68_linear_4_195)"/>
<defs>
<linearGradient id="paint0_linear_4_195" x1="84.7486" y1="71.7214" x2="42.0251" y2="71.7214" gradientUnits="userSpaceOnUse">
<stop stop-color="#00FFC6"/>
<stop offset="1" stop-color="#03AAF8"/>
</linearGradient>
<linearGradient id="paint1_linear_4_195" x1="84.7486" y1="65.6409" x2="42.0251" y2="65.6409" gradientUnits="userSpaceOnUse">
<stop stop-color="#00FFC6"/>
<stop offset="1" stop-color="#03AAF8"/>
</linearGradient>
<linearGradient id="paint2_linear_4_195" x1="84.7486" y1="30.054" x2="42.0251" y2="30.054" gradientUnits="userSpaceOnUse">
<stop stop-color="#00FFC6"/>
<stop offset="1" stop-color="#03AAF8"/>
</linearGradient>
<linearGradient id="paint3_linear_4_195" x1="84.7486" y1="77.8678" x2="42.0251" y2="77.8678" gradientUnits="userSpaceOnUse">
<stop stop-color="#00FFC6"/>
<stop offset="1" stop-color="#03AAF8"/>
</linearGradient>
<linearGradient id="paint4_linear_4_195" x1="84.7486" y1="80.329" x2="42.0251" y2="80.329" gradientUnits="userSpaceOnUse">
<stop stop-color="#00FFC6"/>
<stop offset="1" stop-color="#03AAF8"/>
</linearGradient>
<linearGradient id="paint5_linear_4_195" x1="84.7486" y1="18.1602" x2="42.0251" y2="18.1602" gradientUnits="userSpaceOnUse">
<stop stop-color="#00FFC6"/>
<stop offset="1" stop-color="#03AAF8"/>
</linearGradient>
<linearGradient id="paint6_linear_4_195" x1="84.7486" y1="24.1193" x2="42.0251" y2="24.1193" gradientUnits="userSpaceOnUse">
<stop stop-color="#00FFC6"/>
<stop offset="1" stop-color="#03AAF8"/>
</linearGradient>
<linearGradient id="paint7_linear_4_195" x1="84.7486" y1="30.0797" x2="42.0251" y2="30.0797" gradientUnits="userSpaceOnUse">
<stop stop-color="#00FFC6"/>
<stop offset="1" stop-color="#03AAF8"/>
</linearGradient>
<linearGradient id="paint8_linear_4_195" x1="84.7486" y1="36.0402" x2="42.0251" y2="36.0402" gradientUnits="userSpaceOnUse">
<stop stop-color="#00FFC6"/>
<stop offset="1" stop-color="#03AAF8"/>
</linearGradient>
<linearGradient id="paint9_linear_4_195" x1="84.7486" y1="41.9992" x2="42.0251" y2="41.9992" gradientUnits="userSpaceOnUse">
<stop stop-color="#00FFC6"/>
<stop offset="1" stop-color="#03AAF8"/>
</linearGradient>
<linearGradient id="paint10_linear_4_195" x1="84.7486" y1="47.9597" x2="42.0251" y2="47.9597" gradientUnits="userSpaceOnUse">
<stop stop-color="#00FFC6"/>
<stop offset="1" stop-color="#03AAF8"/>
</linearGradient>
<linearGradient id="paint11_linear_4_195" x1="84.7486" y1="53.9202" x2="42.0251" y2="53.9202" gradientUnits="userSpaceOnUse">
<stop stop-color="#00FFC6"/>
<stop offset="1" stop-color="#03AAF8"/>
</linearGradient>
<linearGradient id="paint12_linear_4_195" x1="84.7486" y1="21.804" x2="42.025" y2="21.804" gradientUnits="userSpaceOnUse">
<stop stop-color="#00FFC6"/>
<stop offset="1" stop-color="#03AAF8"/>
</linearGradient>
<linearGradient id="paint13_linear_4_195" x1="84.7486" y1="27.763" x2="42.0251" y2="27.763" gradientUnits="userSpaceOnUse">
<stop stop-color="#00FFC6"/>
<stop offset="1" stop-color="#03AAF8"/>
</linearGradient>
<linearGradient id="paint14_linear_4_195" x1="84.7486" y1="33.7235" x2="42.0251" y2="33.7235" gradientUnits="userSpaceOnUse">
<stop stop-color="#00FFC6"/>
<stop offset="1" stop-color="#03AAF8"/>
</linearGradient>
<linearGradient id="paint15_linear_4_195" x1="84.7486" y1="39.684" x2="42.0251" y2="39.684" gradientUnits="userSpaceOnUse">
<stop stop-color="#00FFC6"/>
<stop offset="1" stop-color="#03AAF8"/>
</linearGradient>
<linearGradient id="paint16_linear_4_195" x1="84.7486" y1="45.643" x2="42.0251" y2="45.643" gradientUnits="userSpaceOnUse">
<stop stop-color="#00FFC6"/>
<stop offset="1" stop-color="#03AAF8"/>
</linearGradient>
<linearGradient id="paint17_linear_4_195" x1="84.7486" y1="51.6035" x2="42.0251" y2="51.6035" gradientUnits="userSpaceOnUse">
<stop stop-color="#00FFC6"/>
<stop offset="1" stop-color="#03AAF8"/>
</linearGradient>
<linearGradient id="paint18_linear_4_195" x1="84.7486" y1="57.5625" x2="42.0251" y2="57.5625" gradientUnits="userSpaceOnUse">
<stop stop-color="#00FFC6"/>
<stop offset="1" stop-color="#03AAF8"/>
</linearGradient>
<linearGradient id="paint19_linear_4_195" x1="84.7486" y1="89.108" x2="42.0251" y2="89.108" gradientUnits="userSpaceOnUse">
<stop stop-color="#00FFC6"/>
<stop offset="1" stop-color="#03AAF8"/>
</linearGradient>
<linearGradient id="paint20_linear_4_195" x1="14.4979" y1="18.0201" x2="39.8943" y2="104.361" gradientUnits="userSpaceOnUse">
<stop stop-color="#00FFC6"/>
<stop offset="1" stop-color="#03AAF8"/>
</linearGradient>
<linearGradient id="paint21_linear_4_195" x1="26.9566" y1="14.3549" x2="52.3529" y2="100.695" gradientUnits="userSpaceOnUse">
<stop stop-color="#00FFC6"/>
<stop offset="1" stop-color="#03AAF8"/>
</linearGradient>
<linearGradient id="paint22_linear_4_195" x1="17.3277" y1="17.1864" x2="42.7241" y2="103.528" gradientUnits="userSpaceOnUse">
<stop stop-color="#00FFC6"/>
<stop offset="1" stop-color="#03AAF8"/>
</linearGradient>
<linearGradient id="paint23_linear_4_195" x1="15.6994" y1="17.6655" x2="41.0958" y2="104.007" gradientUnits="userSpaceOnUse">
<stop stop-color="#00FFC6"/>
<stop offset="1" stop-color="#03AAF8"/>
</linearGradient>
<linearGradient id="paint24_linear_4_195" x1="14.0711" y1="18.1445" x2="39.4675" y2="104.485" gradientUnits="userSpaceOnUse">
<stop stop-color="#00FFC6"/>
<stop offset="1" stop-color="#03AAF8"/>
</linearGradient>
<linearGradient id="paint25_linear_4_195" x1="12.4428" y1="18.6236" x2="37.8392" y2="104.964" gradientUnits="userSpaceOnUse">
<stop stop-color="#00FFC6"/>
<stop offset="1" stop-color="#03AAF8"/>
</linearGradient>
<linearGradient id="paint26_linear_4_195" x1="10.8145" y1="19.1027" x2="36.2109" y2="105.443" gradientUnits="userSpaceOnUse">
<stop stop-color="#00FFC6"/>
<stop offset="1" stop-color="#03AAF8"/>
</linearGradient>
<linearGradient id="paint27_linear_4_195" x1="9.18626" y1="19.5817" x2="34.5827" y2="105.922" gradientUnits="userSpaceOnUse">
<stop stop-color="#00FFC6"/>
<stop offset="1" stop-color="#03AAF8"/>
</linearGradient>
<linearGradient id="paint28_linear_4_195" x1="16.7413" y1="17.3595" x2="42.1376" y2="103.7" gradientUnits="userSpaceOnUse">
<stop stop-color="#00FFC6"/>
<stop offset="1" stop-color="#03AAF8"/>
</linearGradient>
<linearGradient id="paint29_linear_4_195" x1="15.113" y1="17.8385" x2="40.5094" y2="104.179" gradientUnits="userSpaceOnUse">
<stop stop-color="#00FFC6"/>
<stop offset="1" stop-color="#03AAF8"/>
</linearGradient>
<linearGradient id="paint30_linear_4_195" x1="13.4848" y1="18.3175" x2="38.8812" y2="104.658" gradientUnits="userSpaceOnUse">
<stop stop-color="#00FFC6"/>
<stop offset="1" stop-color="#03AAF8"/>
</linearGradient>
<linearGradient id="paint31_linear_4_195" x1="11.8565" y1="18.7967" x2="37.2528" y2="105.137" gradientUnits="userSpaceOnUse">
<stop stop-color="#00FFC6"/>
<stop offset="1" stop-color="#03AAF8"/>
</linearGradient>
<linearGradient id="paint32_linear_4_195" x1="10.2282" y1="19.2757" x2="35.6246" y2="105.616" gradientUnits="userSpaceOnUse">
<stop stop-color="#00FFC6"/>
<stop offset="1" stop-color="#03AAF8"/>
</linearGradient>
<linearGradient id="paint33_linear_4_195" x1="8.59989" y1="19.7546" x2="33.9964" y2="106.095" gradientUnits="userSpaceOnUse">
<stop stop-color="#00FFC6"/>
<stop offset="1" stop-color="#03AAF8"/>
</linearGradient>
<linearGradient id="paint34_linear_4_195" x1="6.03028" y1="20.5098" x2="31.4266" y2="106.852" gradientUnits="userSpaceOnUse">
<stop stop-color="#00FFC6"/>
<stop offset="1" stop-color="#03AAF8"/>
</linearGradient>
<linearGradient id="paint35_linear_4_195" x1="-4.2597" y1="23.5372" x2="21.1367" y2="109.878" gradientUnits="userSpaceOnUse">
<stop stop-color="#00FFC6"/>
<stop offset="1" stop-color="#03AAF8"/>
</linearGradient>
<linearGradient id="paint36_linear_4_195" x1="48.6474" y1="7.97543" x2="74.0438" y2="94.316" gradientUnits="userSpaceOnUse">
<stop stop-color="#00FFC6"/>
<stop offset="1" stop-color="#03AAF8"/>
</linearGradient>
<linearGradient id="paint37_linear_4_195" x1="48.0151" y1="8.16133" x2="73.4115" y2="94.5019" gradientUnits="userSpaceOnUse">
<stop stop-color="#00FFC6"/>
<stop offset="1" stop-color="#03AAF8"/>
</linearGradient>
<linearGradient id="paint38_linear_4_195" x1="35.6369" y1="11.8023" x2="61.0333" y2="98.1428" gradientUnits="userSpaceOnUse">
<stop stop-color="#00FFC6"/>
<stop offset="1" stop-color="#03AAF8"/>
</linearGradient>
<linearGradient id="paint39_linear_4_195" x1="52.5191" y1="62.6177" x2="71.7467" y2="73.0379" gradientUnits="userSpaceOnUse">
<stop stop-color="#313131"/>
<stop offset="0.67" stop-color="white"/>
</linearGradient>
<linearGradient id="paint40_linear_4_195" x1="52.6427" y1="56.4628" x2="75.056" y2="67.5679" gradientUnits="userSpaceOnUse">
<stop stop-color="#313131"/>
<stop offset="0.67" stop-color="white"/>
</linearGradient>
<linearGradient id="paint41_linear_4_195" x1="52.2259" y1="5.67871" x2="66.5515" y2="19.3279" gradientUnits="userSpaceOnUse">
<stop stop-color="#313131"/>
<stop offset="0.67" stop-color="white"/>
</linearGradient>
<linearGradient id="paint42_linear_4_195" x1="49.6218" y1="88.9479" x2="80.6441" y2="89.2107" gradientUnits="userSpaceOnUse">
<stop stop-color="#313131"/>
<stop offset="0.67" stop-color="white"/>
</linearGradient>
<linearGradient id="paint43_linear_4_195" x1="52.3481" y1="76.6208" x2="71.4042" y2="80.135" gradientUnits="userSpaceOnUse">
<stop stop-color="#313131"/>
<stop offset="0.67" stop-color="white"/>
</linearGradient>
<linearGradient id="paint44_linear_4_195" x1="65.2048" y1="79.2679" x2="79.7143" y2="83.2527" gradientUnits="userSpaceOnUse">
<stop stop-color="#313131"/>
<stop offset="0.67" stop-color="white"/>
</linearGradient>
<linearGradient id="paint45_linear_4_195" x1="97.8949" y1="2.19658" x2="2.77772" y2="122.298" gradientUnits="userSpaceOnUse">
<stop stop-color="#00FFC6"/>
<stop offset="1" stop-color="#03AAF8"/>
</linearGradient>
<linearGradient id="paint46_linear_4_195" x1="88.4188" y1="-5.30836" x2="-6.70044" y2="114.791" gradientUnits="userSpaceOnUse">
<stop stop-color="#00FFC6"/>
<stop offset="1" stop-color="#03AAF8"/>
</linearGradient>
<linearGradient id="paint47_linear_4_195" x1="84.4242" y1="-8.47307" x2="-10.6948" y2="111.629" gradientUnits="userSpaceOnUse">
<stop stop-color="#00FFC6"/>
<stop offset="1" stop-color="#03AAF8"/>
</linearGradient>
<linearGradient id="paint48_linear_4_195" x1="93.2613" y1="-1.47437" x2="-1.85764" y2="118.627" gradientUnits="userSpaceOnUse">
<stop stop-color="#00FFC6"/>
<stop offset="1" stop-color="#03AAF8"/>
</linearGradient>
<linearGradient id="paint49_linear_4_195" x1="112.929" y1="14.1032" x2="17.8106" y2="134.205" gradientUnits="userSpaceOnUse">
<stop stop-color="#00FFC6"/>
<stop offset="1" stop-color="#03AAF8"/>
</linearGradient>
<linearGradient id="paint50_linear_4_195" x1="120.371" y1="19.9979" x2="25.2516" y2="140.097" gradientUnits="userSpaceOnUse">
<stop stop-color="#00FFC6"/>
<stop offset="1" stop-color="#03AAF8"/>
</linearGradient>
<linearGradient id="paint51_linear_4_195" x1="135.75" y1="32.1776" x2="40.632" y2="152.278" gradientUnits="userSpaceOnUse">
<stop stop-color="#00FFC6"/>
<stop offset="1" stop-color="#03AAF8"/>
</linearGradient>
<linearGradient id="paint52_linear_4_195" x1="84.0573" y1="-8.76337" x2="-11.0617" y2="111.338" gradientUnits="userSpaceOnUse">
<stop stop-color="#00FFC6"/>
<stop offset="1" stop-color="#03AAF8"/>
</linearGradient>
<linearGradient id="paint53_linear_4_195" x1="87.3051" y1="-6.19071" x2="-7.8126" y2="113.91" gradientUnits="userSpaceOnUse">
<stop stop-color="#00FFC6"/>
<stop offset="1" stop-color="#03AAF8"/>
</linearGradient>
<linearGradient id="paint54_linear_4_195" x1="89.6506" y1="-4.33308" x2="-5.46864" y2="115.766" gradientUnits="userSpaceOnUse">
<stop stop-color="#00FFC6"/>
<stop offset="1" stop-color="#03AAF8"/>
</linearGradient>
<linearGradient id="paint55_linear_4_195" x1="92.532" y1="-2.05068" x2="-2.58717" y2="118.05" gradientUnits="userSpaceOnUse">
<stop stop-color="#00FFC6"/>
<stop offset="1" stop-color="#03AAF8"/>
</linearGradient>
<linearGradient id="paint56_linear_4_195" x1="95.4135" y1="0.231699" x2="0.295721" y2="120.332" gradientUnits="userSpaceOnUse">
<stop stop-color="#00FFC6"/>
<stop offset="1" stop-color="#03AAF8"/>
</linearGradient>
<linearGradient id="paint57_linear_4_195" x1="98.328" y1="2.53836" x2="3.20881" y2="122.639" gradientUnits="userSpaceOnUse">
<stop stop-color="#00FFC6"/>
<stop offset="1" stop-color="#03AAF8"/>
</linearGradient>
<linearGradient id="paint58_linear_4_195" x1="101.241" y1="4.84646" x2="6.12181" y2="124.947" gradientUnits="userSpaceOnUse">
<stop stop-color="#00FFC6"/>
<stop offset="1" stop-color="#03AAF8"/>
</linearGradient>
<linearGradient id="paint59_linear_4_195" x1="104.154" y1="7.1546" x2="9.03648" y2="127.254" gradientUnits="userSpaceOnUse">
<stop stop-color="#00FFC6"/>
<stop offset="1" stop-color="#03AAF8"/>
</linearGradient>
<linearGradient id="paint60_linear_4_195" x1="107.083" y1="9.47265" x2="11.9638" y2="129.573" gradientUnits="userSpaceOnUse">
<stop stop-color="#00FFC6"/>
<stop offset="1" stop-color="#03AAF8"/>
</linearGradient>
<linearGradient id="paint61_linear_4_195" x1="68.4013" y1="-21.1634" x2="-26.7176" y2="98.9385" gradientUnits="userSpaceOnUse">
<stop stop-color="#00FFC6"/>
<stop offset="1" stop-color="#03AAF8"/>
</linearGradient>
<linearGradient id="paint62_linear_4_195" x1="72.9589" y1="-17.555" x2="-22.1601" y2="102.545" gradientUnits="userSpaceOnUse">
<stop stop-color="#00FFC6"/>
<stop offset="1" stop-color="#03AAF8"/>
</linearGradient>
<linearGradient id="paint63_linear_4_195" x1="80.3684" y1="-11.6844" x2="-14.75" y2="108.416" gradientUnits="userSpaceOnUse">
<stop stop-color="#00FFC6"/>
<stop offset="1" stop-color="#03AAF8"/>
</linearGradient>
<linearGradient id="paint64_linear_4_195" x1="110.566" y1="12.2323" x2="15.4492" y2="132.333" gradientUnits="userSpaceOnUse">
<stop stop-color="#00FFC6"/>
<stop offset="1" stop-color="#03AAF8"/>
</linearGradient>
<linearGradient id="paint65_linear_4_195" x1="114.435" y1="15.2944" x2="19.3168" y2="135.395" gradientUnits="userSpaceOnUse">
<stop stop-color="#00FFC6"/>
<stop offset="1" stop-color="#03AAF8"/>
</linearGradient>
<linearGradient id="paint66_linear_4_195" x1="72.0338" y1="-18.2844" x2="-23.0834" y2="101.817" gradientUnits="userSpaceOnUse">
<stop stop-color="#00FFC6"/>
<stop offset="1" stop-color="#03AAF8"/>
</linearGradient>
<linearGradient id="paint67_linear_4_195" x1="110.9" y1="12.4977" x2="15.7834" y2="132.597" gradientUnits="userSpaceOnUse">
<stop stop-color="#00FFC6"/>
<stop offset="1" stop-color="#03AAF8"/>
</linearGradient>
<linearGradient id="paint68_linear_4_195" x1="108.956" y1="10.9561" x2="13.8376" y2="131.057" gradientUnits="userSpaceOnUse">
<stop stop-color="#00FFC6"/>
<stop offset="1" stop-color="#03AAF8"/>
</linearGradient>
</defs>
</svg>
