<svg width="20" height="20" viewBox="0 0 20 20" fill="none" xmlns="http://www.w3.org/2000/svg">
<path d="M6.43306 7.68306C6.18898 7.92714 6.18898 8.32286 6.43306 8.56694C6.67714 8.81102 7.07286 8.81102 7.31694 8.56694L10 5.88388L12.6831 8.56694C12.9271 8.81102 13.3229 8.81102 13.5669 8.56694C13.811 8.32286 13.811 7.92714 13.5669 7.68306L10.4419 4.55806C10.1979 4.31398 9.80214 4.31398 9.55806 4.55806L6.43306 7.68306Z" fill="black" fill-opacity="0.2"/>
<path d="M13.5669 12.3169C13.811 12.0729 13.811 11.6771 13.5669 11.4331C13.3229 11.189 12.9271 11.189 12.6831 11.4331L10 14.1161L7.31694 11.4331C7.07286 11.189 6.67714 11.189 6.43306 11.4331C6.18898 11.6771 6.18898 12.0729 6.43306 12.3169L9.55806 15.4419C9.80214 15.686 10.1979 15.686 10.4419 15.4419L13.5669 12.3169Z" fill="black" fill-opacity="0.2"/>
</svg>
