<svg width="28" height="24" viewBox="0 0 28 24" fill="none" xmlns="http://www.w3.org/2000/svg">
<path d="M26.8333 10.8H1.16667C0.522334 10.8 0 11.3373 0 12C0 12.6627 0.522334 13.2 1.16667 13.2H26.8333C27.4777 13.2 28 12.6627 28 12C28 11.3373 27.4777 10.8 26.8333 10.8Z" fill="#0177FB"/>
<path d="M12.4912 2.04898C12.71 1.82393 12.8333 1.51826 12.8333 1.2C12.8333 0.88174 12.7104 0.576516 12.4916 0.351472L12.4816 0.341238C12.2637 0.12288 11.9709 0 11.6667 0C11.3572 0 11.0605 0.126428 10.8417 0.351472L0.341709 11.1515C0.122916 11.3765 0 11.6817 0 12C-6.95387e-08 12.3183 0.122916 12.6235 0.341709 12.8485L10.8417 23.6485C11.0605 23.8736 11.3572 24 11.6667 24C11.9761 24 12.2728 23.8736 12.4916 23.6485C12.7104 23.4235 12.8333 23.1183 12.8333 22.8C12.8333 22.4817 12.7104 22.1765 12.4916 21.9515L2.81658 12L12.4912 2.04898Z" fill="#0177FB"/>
</svg>
