<svg width="41" height="41" viewBox="0 0 41 41" fill="none" xmlns="http://www.w3.org/2000/svg">
<g clip-path="url(#clip0_377_11)">
<path d="M24.1245 18.8036H16.8756C13.6121 18.8036 10.957 21.4587 10.957 24.7222V36.7059C10.957 37.3596 11.487 37.8896 12.1407 37.8896H28.8593C29.5131 37.8896 30.043 37.3596 30.043 36.7059V24.7222C30.043 21.4587 27.388 18.8036 24.1245 18.8036Z" fill="#0177FB"/>
<path d="M35.0814 21.887H31.9106C32.2338 22.7719 32.4104 23.7268 32.4104 24.7221V36.7058C32.4104 37.1208 32.3382 37.5191 32.2068 37.8895H37.4488C39.4069 37.8895 40.9999 36.2964 40.9999 34.3384V27.8055C41 24.5421 38.3449 21.887 35.0814 21.887Z" fill="#0177FB"/>
<path d="M8.5896 24.7222C8.5896 23.7268 8.76617 22.772 9.08937 21.8871H5.91859C2.65508 21.8871 0 24.5422 0 27.8057V34.3385C0 36.2966 1.593 37.8897 3.55115 37.8897H8.79324C8.66183 37.5191 8.5896 37.1209 8.5896 36.7059V24.7222Z" fill="#0177FB"/>
<path d="M20.5002 3.11024C16.5754 3.11024 13.3823 6.30329 13.3823 10.2282C13.3823 12.8904 14.8517 15.2154 17.0216 16.4362C18.0509 17.0151 19.2375 17.346 20.5002 17.346C21.7628 17.346 22.9494 17.0151 23.9787 16.4362C26.1487 15.2154 27.618 12.8903 27.618 10.2282C27.618 6.30337 24.425 3.11024 20.5002 3.11024Z" fill="#0177FB"/>
<path d="M8.00143 9.74464C5.06616 9.74464 2.67822 12.1326 2.67822 15.0678C2.67822 18.0031 5.06616 20.3911 8.00143 20.3911C8.74599 20.3911 9.45501 20.2368 10.0991 19.9596C11.2126 19.4802 12.1308 18.6315 12.699 17.5685C13.0978 16.8224 13.3246 15.9712 13.3246 15.0678C13.3246 12.1327 10.9367 9.74464 8.00143 9.74464Z" fill="#0177FB"/>
<path d="M32.999 9.74464C30.0637 9.74464 27.6758 12.1326 27.6758 15.0678C27.6758 15.9713 27.9026 16.8224 28.3014 17.5685C28.8696 18.6316 29.7878 19.4802 30.9013 19.9596C31.5454 20.2368 32.2544 20.3911 32.999 20.3911C35.9343 20.3911 38.3222 18.0031 38.3222 15.0678C38.3222 12.1326 35.9343 9.74464 32.999 9.74464Z" fill="#0177FB"/>
</g>
<defs>
<clipPath id="clip0_377_11">
<rect width="41" height="41" fill="white"/>
</clipPath>
</defs>
</svg>
