<svg width="24" height="24" viewBox="0 0 24 24" fill="none" xmlns="http://www.w3.org/2000/svg">
<path d="M8.77486 5.47382L11.4663 2.78242C11.7592 2.48958 12.234 2.48958 12.5269 2.78242L15.2163 5.47191C15.5092 5.76475 15.5092 6.23967 15.2163 6.53257L12.525 9.22394C12.232 9.51688 11.7572 9.51691 11.4643 9.22394L8.77489 6.53458C8.48198 6.24161 8.48192 5.76676 8.77486 5.47382Z" fill="black" fill-opacity="0.1"/>
<path d="M14.7758 11.4739L17.4672 8.7825C17.7601 8.48959 18.235 8.48962 18.5279 8.7825L21.2173 11.472C21.5102 11.7648 21.5102 12.2397 21.2173 12.5326L18.5258 15.2239C18.233 15.517 17.7581 15.5169 17.4653 15.2239L14.7758 12.5346C14.4828 12.2416 14.4829 11.7668 14.7758 11.4739Z" fill="black" fill-opacity="0.1"/>
<path d="M2.77491 11.4654L5.46631 8.77401C5.75922 8.48111 6.2341 8.48114 6.52697 8.77401L9.21643 11.4635C9.5093 11.7563 9.50927 12.2312 9.21643 12.5241L6.5249 15.2154C6.23209 15.5085 5.75721 15.5084 5.46434 15.2154L2.77488 12.5261C2.48201 12.2331 2.48201 11.7583 2.77491 11.4654Z" fill="black" fill-opacity="0.1"/>
<path d="M8.77579 17.4653L11.4672 14.774C11.7601 14.4811 12.2349 14.4811 12.5278 14.774L15.2173 17.4634C15.5101 17.7563 15.5102 18.2312 15.2173 18.524L12.5259 21.2155C12.2329 21.5084 11.7581 21.5084 11.4652 21.2154L8.77579 18.5261C8.48292 18.2331 8.48292 17.7583 8.77579 17.4653Z" fill="black" fill-opacity="0.1"/>
<path fill-rule="evenodd" clip-rule="evenodd" d="M8.24456 7.0649C8.24456 7.0649 7.80522 6.62556 7.80522 6.00424C7.80522 6.00424 7.80522 5.38292 8.24456 4.94358L10.936 2.25216C10.936 2.25216 11.3753 1.81282 11.9966 1.81282C11.9966 1.81282 12.618 1.81282 13.0573 2.25216L15.7467 4.94159C15.7467 4.94159 16.1861 5.38093 16.1861 6.00225C16.1861 6.00225 16.1861 6.62357 15.7467 7.06291L13.0553 9.75434C13.0553 9.75434 12.616 10.1937 11.9947 10.1937C11.9947 10.1937 11.3733 10.1937 10.934 9.75434L8.24456 7.0649ZM9.30522 6.00424L11.9947 8.69368L14.6861 6.00225L11.9966 3.31282L9.30522 6.00424Z" fill="#1C1C1C"/>
<path fill-rule="evenodd" clip-rule="evenodd" d="M14.2455 13.0649C14.2455 13.0649 13.8061 12.6256 13.8061 12.0042C13.8061 12.0042 13.8061 11.3829 14.2455 10.9436L16.9369 8.25216C16.9369 8.25216 17.3762 7.81282 17.9976 7.81282C17.9976 7.81282 18.6189 7.81282 19.0582 8.25216L21.7477 10.9416C21.7477 10.9416 22.187 11.3809 22.187 12.0023C22.187 12.0023 22.187 12.6236 21.7477 13.0629L19.0562 15.7543C19.0562 15.7543 18.6169 16.1937 17.9956 16.1937C17.9956 16.1937 17.3743 16.1937 16.9349 15.7543L14.2455 13.0649ZM15.3061 12.0042L17.9956 14.6937L20.687 12.0023L17.9976 9.31282L15.3061 12.0042Z" fill="#1C1C1C"/>
<path fill-rule="evenodd" clip-rule="evenodd" d="M2.24456 13.0564C2.24456 13.0564 1.80522 12.6171 1.80522 11.9958C1.80522 11.9958 1.80522 11.3744 2.24456 10.9351L4.93598 8.24367C4.93598 8.24367 5.37532 7.80433 5.99664 7.80433C5.99664 7.80433 6.61797 7.80433 7.0573 8.24367L9.74674 10.9331C9.74674 10.9331 10.1861 11.3724 10.1861 11.9938C10.1861 11.9938 10.1861 12.6151 9.74674 13.0544L7.05532 15.7459C7.05532 15.7459 6.61598 16.1852 5.99466 16.1852C5.99466 16.1852 5.37333 16.1852 4.934 15.7459L2.24456 13.0564ZM3.30522 11.9958L5.99466 14.6852L8.68608 11.9938L5.99664 9.30433L3.30522 11.9958Z" fill="#1C1C1C"/>
<path fill-rule="evenodd" clip-rule="evenodd" d="M8.24547 19.0564C8.24547 19.0564 7.80613 18.6171 7.80613 17.9958C7.80613 17.9958 7.80613 17.3744 8.24547 16.9351L10.9369 14.2437C10.9369 14.2437 11.3762 13.8043 11.9976 13.8043C11.9976 13.8043 12.6189 13.8043 13.0582 14.2437L15.7477 16.9331C15.7477 16.9331 16.187 17.3724 16.187 17.9938C16.187 17.9938 16.187 18.6151 15.7477 19.0544L13.0562 21.7459C13.0562 21.7459 12.6169 22.1852 11.9956 22.1852C11.9956 22.1852 11.3743 22.1852 10.9349 21.7459L8.24547 19.0564ZM9.30613 17.9958L11.9956 20.6852L14.687 17.9938L11.9976 15.3043L9.30613 17.9958Z" fill="#1C1C1C"/>
</svg>
