<svg width="32" height="32" viewBox="0 0 32 32" fill="none" xmlns="http://www.w3.org/2000/svg">
<path d="M6 12H26V27H6V12Z" fill="black" fill-opacity="0.1"/>
<path d="M20.5424 9.95659L20.5429 9.95711C20.7304 10.1446 20.9848 10.25 21.25 10.25C21.5152 10.25 21.7696 10.1446 21.9571 9.95711C22.1446 9.76957 22.25 9.51522 22.25 9.25C22.25 8.98478 22.1446 8.73043 21.9571 8.54289L16.7071 3.29289C16.5196 3.10536 16.2652 3 16 3C15.7348 3 15.4804 3.10536 15.2929 3.29289L10.0433 8.54252L10.0429 8.54289C9.85536 8.73043 9.75 8.98478 9.75 9.25C9.75 9.26602 9.75038 9.28204 9.75115 9.29804C9.7631 9.54635 9.8671 9.78132 10.0429 9.95711C10.2304 10.1446 10.4848 10.25 10.75 10.25C11.0152 10.25 11.2696 10.1446 11.4571 9.95711L11.4575 9.95673L16 5.41421L20.5424 9.95659Z" fill="#1C1C1C"/>
<path d="M17 18V4C17 3.44772 16.5523 3 16 3C15.4477 3 15 3.44772 15 4V18C15 18.5523 15.4477 19 16 19C16.5523 19 17 18.5523 17 18Z" fill="#1C1C1C"/>
<path d="M7 13H10C10.5523 13 11 12.5523 11 12C11 11.4477 10.5523 11 10 11H7C6.17157 11 5.58579 11.5858 5.58579 11.5858C5 12.1716 5 13 5 13V26C5 26.8284 5.58579 27.4142 5.58579 27.4142C6.17157 28 7 28 7 28H25C25.8284 28 26.4142 27.4142 26.4142 27.4142C27 26.8284 27 26 27 26V13C27 12.1716 26.4142 11.5858 26.4142 11.5858C25.8284 11 25 11 25 11H22C21.4477 11 21 11.4477 21 12C21 12.5523 21.4477 13 22 13H25V26H7V13Z" fill="#1C1C1C"/>
</svg>
