<svg width="10" height="10" viewBox="0 0 10 10" fill="none" xmlns="http://www.w3.org/2000/svg">
<path d="M0.833333 9.16667V6.25C0.833333 6.01988 0.646785 5.83333 0.416667 5.83333C0.186548 5.83333 0 6.01988 0 6.25V9.16667C0 9.51184 0.244078 9.75592 0.244078 9.75592C0.488155 10 0.833333 10 0.833333 10H9.16667C9.51184 10 9.75592 9.75592 9.75592 9.75592C10 9.51185 10 9.16667 10 9.16667V6.25C10 6.01988 9.81345 5.83333 9.58333 5.83333C9.35321 5.83333 9.16667 6.01988 9.16667 6.25V9.16667H0.833333Z" fill="black"/>
<path d="M4.58333 0.416667V6.25C4.58333 6.48012 4.76988 6.66667 5 6.66667C5.23012 6.66667 5.41667 6.48012 5.41667 6.25V0.416667C5.41667 0.186548 5.23012 0 5 0C4.76988 0 4.58333 0.186548 4.58333 0.416667Z" fill="black"/>
<path d="M7.48197 4.35728C7.56011 4.27914 7.60417 4.17301 7.60417 4.0625C7.60417 3.95199 7.56027 3.84601 7.48213 3.76787C7.40399 3.68973 7.29801 3.64583 7.1875 3.64583C7.07699 3.64583 6.97101 3.68973 6.89287 3.76787L5 5.66074L3.10718 3.76792C3.02899 3.68973 2.92301 3.64583 2.8125 3.64583C2.70199 3.64583 2.59601 3.68973 2.51787 3.76787C2.43973 3.84601 2.39583 3.95199 2.39583 4.0625C2.39583 4.17301 2.43973 4.27899 2.51787 4.35713L4.70537 6.54463C4.78351 6.62277 4.88949 6.66667 5 6.66667C5.11051 6.66667 5.21649 6.62277 5.29463 6.54463L7.48197 4.35728Z" fill="black"/>
</svg>
