<svg xmlns="http://www.w3.org/2000/svg" width="16" height="16" viewBox="0 0 16 16" fill="none">
<path d="M8 2.66666C4.36364 2.66666 1.25818 4.92847 0 8.1212C1.25818 11.3139 4.36364 13.5757 8 13.5757C11.6364 13.5757 14.7418 11.3139 16 8.1212C14.7418 4.92847 11.6364 2.66666 8 2.66666ZM8 11.7576C5.99273 11.7576 4.36364 10.1285 4.36364 8.1212C4.36364 6.11393 5.99273 4.48484 8 4.48484C10.0073 4.48484 11.6364 6.11393 11.6364 8.1212C11.6364 10.1285 10.0073 11.7576 8 11.7576ZM8 5.93938C6.79273 5.93938 5.81818 6.91393 5.81818 8.1212C5.81818 9.32847 6.79273 10.303 8 10.303C9.20727 10.303 10.1818 9.32847 10.1818 8.1212C10.1818 6.91393 9.20727 5.93938 8 5.93938Z" fill="#4D4D4D"/>
</svg>