<svg width="17" height="17" viewBox="0 0 17 17" fill="none" xmlns="http://www.w3.org/2000/svg">
<path d="M4.5 10.5H3.5C3.36739 10.5 3.24021 10.5527 3.14645 10.6464C3.05268 10.7402 3 10.8674 3 11V14C3 14.1326 3.05268 14.2598 3.14645 14.3536C3.24021 14.4473 3.36739 14.5 3.5 14.5C3.63261 14.5 3.75979 14.4473 3.85355 14.3536C3.94732 14.2598 4 14.1326 4 14V13.5H4.5C4.89782 13.5 5.27936 13.342 5.56066 13.0607C5.84196 12.7794 6 12.3978 6 12C6 11.6022 5.84196 11.2206 5.56066 10.9393C5.27936 10.658 4.89782 10.5 4.5 10.5ZM4.5 12.5H4V11.5H4.5C4.63261 11.5 4.75979 11.5527 4.85355 11.6464C4.94732 11.7402 5 11.8674 5 12C5 12.1326 4.94732 12.2598 4.85355 12.3536C4.75979 12.4473 4.63261 12.5 4.5 12.5ZM12.75 11.5V12.25H13.75C13.8826 12.25 14.0098 12.3027 14.1036 12.3964C14.1973 12.4902 14.25 12.6174 14.25 12.75C14.25 12.8826 14.1973 13.0098 14.1036 13.1036C14.0098 13.1973 13.8826 13.25 13.75 13.25H12.75V14C12.75 14.1326 12.6973 14.2598 12.6036 14.3536C12.5098 14.4473 12.3826 14.5 12.25 14.5C12.1174 14.5 11.9902 14.4473 11.8964 14.3536C11.8027 14.2598 11.75 14.1326 11.75 14V11C11.75 10.8674 11.8027 10.7402 11.8964 10.6464C11.9902 10.5527 12.1174 10.5 12.25 10.5H14C14.1326 10.5 14.2598 10.5527 14.3536 10.6464C14.4473 10.7402 14.5 10.8674 14.5 11C14.5 11.1326 14.4473 11.2598 14.3536 11.3536C14.2598 11.4473 14.1326 11.5 14 11.5H12.75ZM8.5 10.5H7.625C7.49239 10.5 7.36521 10.5527 7.27145 10.6464C7.17768 10.7402 7.125 10.8674 7.125 11V14C7.125 14.1326 7.17768 14.2598 7.27145 14.3536C7.36521 14.4473 7.49239 14.5 7.625 14.5H8.5C9.03043 14.5 9.53914 14.2893 9.91421 13.9142C10.2893 13.5391 10.5 13.0304 10.5 12.5C10.5 11.9696 10.2893 11.4609 9.91421 11.0858C9.53914 10.7107 9.03043 10.5 8.5 10.5ZM8.5 13.5H8.125V11.5H8.5C8.76522 11.5 9.01957 11.6054 9.20711 11.7929C9.39464 11.9804 9.5 12.2348 9.5 12.5C9.5 12.7652 9.39464 13.0196 9.20711 13.2071C9.01957 13.3946 8.76522 13.5 8.5 13.5ZM3.5 9H13.5C13.6326 9 13.7598 8.94732 13.8536 8.85355C13.9473 8.75979 14 8.63261 14 8.5V6C14.0007 5.86698 13.9491 5.739 13.8562 5.64375L10.3562 2.14375C10.261 2.05089 10.133 1.99925 10 2H4C3.73478 2 3.48043 2.10536 3.29289 2.29289C3.10536 2.48043 3 2.73478 3 3V8.5C3 8.63261 3.05268 8.75979 3.14645 8.85355C3.24021 8.94732 3.36739 9 3.5 9ZM10 3.25L12.75 6H10V3.25Z" fill="#1C1C1C"/>
</svg>
