<svg width="17" height="17" viewBox="0 0 17 17" fill="none" xmlns="http://www.w3.org/2000/svg">
<path fill-rule="evenodd" clip-rule="evenodd" d="M3 3.5H14C14.1326 3.5 14.2598 3.55273 14.3535 3.64648C14.4473 3.74023 14.5 3.86743 14.5 4V13C14.5 13.1326 14.4473 13.2598 14.3535 13.3535C14.2598 13.4473 14.1326 13.5 14 13.5H3C2.86743 13.5 2.74023 13.4473 2.64648 13.3535C2.55273 13.2598 2.5 13.1326 2.5 13V4C2.5 3.86743 2.55273 3.74023 2.64648 3.64648C2.74023 3.55273 2.86743 3.5 3 3.5ZM5.42285 9.24719C5.66956 9.41199 5.95959 9.5 6.25623 9.5C6.45349 9.50085 6.64893 9.46265 6.8313 9.38745C7.01367 9.31238 7.17932 9.2019 7.31873 9.0625C7.45825 8.9231 7.5686 8.75732 7.6438 8.57495C7.71887 8.3927 7.75708 8.19727 7.75623 8C7.75623 7.70337 7.66833 7.41333 7.50342 7.16663C7.33862 6.91992 7.10437 6.72766 6.83032 6.61414C6.55615 6.50061 6.25464 6.47095 5.96362 6.52881C5.67261 6.58667 5.4054 6.72961 5.19556 6.93933C4.98584 7.14917 4.8429 7.41638 4.78503 7.7074C4.72717 7.99829 4.75696 8.29993 4.87048 8.57397C4.98401 8.84814 5.17627 9.0824 5.42285 9.24719Z" fill="black" fill-opacity="0.1"/>
<path d="M10 8H12.5C12.7761 8 13 7.77614 13 7.5C13 7.22386 12.7761 7 12.5 7H10C9.72386 7 9.5 7.22386 9.5 7.5C9.5 7.77614 9.72386 8 10 8Z" fill="#1C1C1C"/>
<path d="M10 10H12.5C12.7761 10 13 9.77614 13 9.5C13 9.22386 12.7761 9 12.5 9H10C9.72386 9 9.5 9.22386 9.5 9.5C9.5 9.77614 9.72386 10 10 10Z" fill="#1C1C1C"/>
<path fill-rule="evenodd" clip-rule="evenodd" d="M6.25586 6C6.25586 6 7.08429 6 7.67007 6.58579C7.67007 6.58579 8.25586 7.17157 8.25586 8C8.25586 8 8.25586 8.82843 7.67007 9.41421C7.67007 9.41421 7.08429 10 6.25586 10C6.25586 10 5.42743 10 4.84165 9.41421C4.84165 9.41421 4.25586 8.82843 4.25586 8C4.25586 8 4.25586 7.17157 4.84165 6.58579C4.84165 6.58579 5.42743 6 6.25586 6ZM6.25586 7C6.25586 7 5.84165 7 5.54875 7.29289C5.54875 7.29289 5.25586 7.58579 5.25586 8C5.25586 8 5.25586 8.41421 5.54875 8.70711C5.54875 8.70711 5.84165 9 6.25586 9C6.25586 9 6.67007 9 6.96297 8.70711C6.96297 8.70711 7.25586 8.41421 7.25586 8C7.25586 8 7.25586 7.58579 6.96297 7.29289C6.96297 7.29289 6.67007 7 6.25586 7Z" fill="#1C1C1C"/>
<path d="M7.17562 10.3112C7.58113 10.6259 7.70873 11.123 7.70873 11.123L7.70886 11.1235L7.70898 11.124C7.76563 11.3453 7.96498 11.5 8.19336 11.5L8.20342 11.4999C8.24187 11.4991 8.28012 11.4939 8.31738 11.4844C8.53862 11.4277 8.69336 11.2284 8.69336 11L8.69326 10.9899C8.69248 10.9515 8.68728 10.9132 8.67773 10.876C8.46531 10.0463 7.78879 9.52121 7.78879 9.52121C7.11227 8.99608 6.25586 8.99608 6.25586 8.99608C5.39945 8.99608 4.72293 9.52121 4.72293 9.52121C4.04641 10.0463 3.83398 10.876 3.83398 10.876C3.82361 10.9165 3.81836 10.9582 3.81836 11C3.81836 11.0071 3.81851 11.0142 3.81881 11.0213C3.82233 11.1037 3.84615 11.1839 3.88816 11.2548C3.95574 11.3689 4.06588 11.4515 4.19434 11.4844C4.23486 11.4948 4.27653 11.5 4.31836 11.5C4.32547 11.5 4.33258 11.4998 4.33969 11.4995C4.42204 11.496 4.50225 11.4722 4.57317 11.4302C4.68727 11.3626 4.76984 11.2525 4.80273 11.124C4.93019 10.6262 5.3361 10.3112 5.3361 10.3112C5.74201 9.99608 6.25586 9.99608 6.25586 9.99608C6.76971 9.99608 7.17562 10.3112 7.17562 10.3112Z" fill="#1C1C1C"/>
<path fill-rule="evenodd" clip-rule="evenodd" d="M2 4C2 4 2 3.58579 2.29289 3.29289C2.29289 3.29289 2.58579 3 3 3H14C14 3 14.4142 3 14.7071 3.29289C14.7071 3.29289 15 3.58579 15 4V13C15 13 15 13.4142 14.7071 13.7071C14.7071 13.7071 14.4142 14 14 14H3C3 14 2.58579 14 2.29289 13.7071C2.29289 13.7071 2 13.4142 2 13V4ZM3 4V13H14V4H3Z" fill="#1C1C1C"/>
</svg>
