<svg width="31" height="31" viewBox="0 0 31 31" fill="none" xmlns="http://www.w3.org/2000/svg">
<path fill-rule="evenodd" clip-rule="evenodd" d="M2.375 15.6175C2.375 15.6175 6.125 7.18001 15.5 7.18001C24.875 7.18001 28.625 15.6175 28.625 15.6175C28.625 15.6175 24.875 24.055 15.5 24.055C6.125 24.055 2.375 15.6175 2.375 15.6175ZM12.8958 19.515C13.6667 20.0301 14.5729 20.305 15.5 20.305C16.7432 20.305 17.9355 19.8112 18.8146 18.9321C19.6937 18.053 20.1875 16.8607 20.1875 15.6175C20.1875 14.6904 19.9126 13.7842 19.3975 13.0133C18.8824 12.2424 18.1503 11.6416 17.2939 11.2868C16.4373 10.9321 15.4949 10.8393 14.5855 11.0201C13.6763 11.2009 12.841 11.6474 12.1854 12.303C11.5299 12.9585 11.0834 13.7938 10.9026 14.703C10.7217 15.6124 10.8146 16.5548 11.1693 17.4114C11.5241 18.2678 12.1249 18.9999 12.8958 19.515Z" fill="black" fill-opacity="0.1"/>
<path fill-rule="evenodd" clip-rule="evenodd" d="M29.4817 15.9983C29.4817 15.9983 29.2199 16.5873 28.6859 17.4354C28.6859 17.4354 27.6338 19.1064 26.241 20.4992C26.241 20.4992 21.7477 24.9925 15.5 24.9925C15.5 24.9925 9.2523 24.9925 4.75896 20.4992C4.75896 20.4992 3.36622 19.1064 2.31408 17.4354C2.31408 17.4354 1.78008 16.5873 1.5183 15.9983C1.41057 15.7559 1.41057 15.4792 1.5183 15.2368C1.5183 15.2368 1.78008 14.6478 2.31408 13.7996C2.31408 13.7996 3.36622 12.1286 4.75896 10.7358C4.75896 10.7358 9.25231 6.24251 15.5 6.24251C15.5 6.24251 21.7477 6.24251 26.241 10.7358C26.241 10.7358 27.6338 12.1286 28.6859 13.7996C28.6859 13.7996 29.2199 14.6477 29.4817 15.2368C29.5894 15.4792 29.5894 15.7559 29.4817 15.9983ZM27.0992 16.4364C27.0992 16.4364 27.3906 15.9736 27.5805 15.6175C27.5805 15.6175 27.3906 15.2614 27.0992 14.7987C27.0992 14.7987 26.1592 13.3056 24.9152 12.0617C24.9152 12.0617 20.971 8.11751 15.5 8.11751C15.5 8.11751 10.029 8.11751 6.08479 12.0617C6.08479 12.0617 4.84081 13.3056 3.90077 14.7987C3.90077 14.7987 3.60941 15.2614 3.41948 15.6175C3.41948 15.6175 3.60941 15.9736 3.90077 16.4364C3.90077 16.4364 4.84081 17.9294 6.08479 19.1733C6.08479 19.1733 10.029 23.1175 15.5 23.1175C15.5 23.1175 20.971 23.1175 24.9152 19.1733C24.9152 19.1733 26.1592 17.9294 27.0992 16.4364Z" fill="#1C1C1C"/>
<path fill-rule="evenodd" clip-rule="evenodd" d="M15.5 9.99251C15.5 9.99251 17.83 9.99251 19.4775 11.64C19.4775 11.64 21.125 13.2876 21.125 15.6175C21.125 15.6175 21.125 17.9475 19.4775 19.595C19.4775 19.595 17.83 21.2425 15.5 21.2425C15.5 21.2425 13.17 21.2425 11.5225 19.595C11.5225 19.595 9.875 17.9475 9.875 15.6175C9.875 15.6175 9.875 13.2876 11.5225 11.64C11.5225 11.64 13.17 9.99251 15.5 9.99251ZM15.5 11.8675C15.5 11.8675 13.9467 11.8675 12.8483 12.9659C12.8483 12.9659 11.75 14.0642 11.75 15.6175C11.75 15.6175 11.75 17.1708 12.8483 18.2692C12.8483 18.2692 13.9467 19.3675 15.5 19.3675C15.5 19.3675 17.0533 19.3675 18.1516 18.2692C18.1516 18.2692 19.25 17.1708 19.25 15.6175C19.25 15.6175 19.25 14.0642 18.1516 12.9659C18.1516 12.9659 17.0533 11.8675 15.5 11.8675Z" fill="#1C1C1C"/>
</svg>
