<svg width="20" height="20" viewBox="0 0 20 20" fill="none" xmlns="http://www.w3.org/2000/svg">
<path d="M17.5385 10L13.8477 13.6908C13.6953 13.8432 13.6094 14.0501 13.6094 14.2656C13.6094 14.2786 13.6097 14.2917 13.6103 14.3047C13.62 14.5064 13.7045 14.6973 13.8474 14.8401C13.9997 14.9925 14.2064 15.0781 14.4219 15.0781C14.6374 15.0781 14.844 14.9925 14.9964 14.8401L19.262 10.5745C19.4144 10.4222 19.5 10.2155 19.5 10C19.5 9.78451 19.4144 9.57785 19.262 9.42548L14.9965 5.15995C14.844 5.00748 14.6374 4.92188 14.4219 4.92188C14.2064 4.92188 13.9997 5.00748 13.8474 5.15985C13.695 5.31222 13.6094 5.51889 13.6094 5.73438C13.6094 5.94986 13.695 6.15653 13.8474 6.3089L17.5385 10Z" fill="white"/>
<path d="M7.3125 10.8125H18.6875C19.1362 10.8125 19.5 10.4487 19.5 10C19.5 9.55127 19.1362 9.1875 18.6875 9.1875H7.3125C6.86377 9.1875 6.5 9.55127 6.5 10C6.5 10.4487 6.86377 10.8125 7.3125 10.8125Z" fill="white"/>
<path d="M1.625 1.875H7.3125C7.76123 1.875 8.125 1.51123 8.125 1.0625C8.125 0.613769 7.76123 0.25 7.3125 0.25H1.625C0.951903 0.25 0.475952 0.725952 0.475952 0.725952C0 1.2019 0 1.875 0 1.875V18.125C0 18.7981 0.475952 19.274 0.475952 19.274C0.951903 19.75 1.625 19.75 1.625 19.75H7.3125C7.76123 19.75 8.125 19.3862 8.125 18.9375C8.125 18.4888 7.76123 18.125 7.3125 18.125H1.625V1.875Z" fill="white"/>
</svg>
