<svg width="28" height="29" viewBox="0 0 28 29" fill="none" xmlns="http://www.w3.org/2000/svg">
<path d="M9 13.25C9.69036 13.25 10.25 13.8096 10.25 14.5C10.25 15.1904 9.69036 15.75 9 15.75C8.30964 15.75 7.75 15.1904 7.75 14.5C7.75 13.8096 8.30964 13.25 9 13.25Z" fill="#1C1C1C"/>
<path d="M14 13.25C14.6904 13.25 15.25 13.8096 15.25 14.5C15.25 15.1904 14.6904 15.75 14 15.75C13.3096 15.75 12.75 15.1904 12.75 14.5C12.75 13.8096 13.3096 13.25 14 13.25Z" fill="#1C1C1C"/>
<path d="M20.25 14.5C20.25 13.8096 19.6904 13.25 19 13.25C18.3096 13.25 17.75 13.8096 17.75 14.5C17.75 15.1904 18.3096 15.75 19 15.75C19.6904 15.75 20.25 15.1904 20.25 14.5Z" fill="#1C1C1C"/>
</svg>
