<svg width="28" height="29" viewBox="0 0 28 29" fill="none" xmlns="http://www.w3.org/2000/svg">
<path d="M14.625 8.875C14.625 8.52982 14.3452 8.25 14 8.25C13.6548 8.25 13.375 8.52982 13.375 8.875V13.875H8.375C8.02982 13.875 7.75 14.1548 7.75 14.5C7.75 14.8452 8.02982 15.125 8.375 15.125H13.375V20.125C13.375 20.4702 13.6548 20.75 14 20.75C14.3452 20.75 14.625 20.4702 14.625 20.125V15.125H19.625C19.9702 15.125 20.25 14.8452 20.25 14.5C20.25 14.1548 19.9702 13.875 19.625 13.875H14.625V8.875Z" fill="#1C1C1C"/>
</svg>
