<svg width="41" height="41" viewBox="0 0 41 41" fill="none" xmlns="http://www.w3.org/2000/svg">
<path d="M16.3705 0H7.05937V5.67828L16.3705 4.12633V0Z" fill="#0177FB"/>
<path d="M36.8689 38.5975V11.7143H21.7012V38.5975H19.2988V6.07398L4.13107 8.60207V38.5975H0V41H41V38.5975H36.8689ZM30.9375 15.1689H33.4892V17.5714H30.9375V15.1689ZM30.9375 21.0261H33.4892V23.4286H30.9375V21.0261ZM30.9375 26.8832H33.4892V29.2857H30.9375V26.8832ZM30.9375 32.7404H33.4892V35.1429H30.9375V32.7404ZM25.0809 15.1689H27.6326V17.5714H25.0809V15.1689ZM25.0809 21.0261H27.6326V23.4286H25.0809V21.0261ZM25.0809 26.8832H27.6326V29.2857H25.0809V26.8832ZM25.0809 32.7404H27.6326V35.1429H25.0809V32.7404ZM13.3674 9.31178H15.9191V11.7143H13.3674V9.31178ZM13.3674 15.1689H15.9191V17.5714H13.3674V15.1689ZM13.3674 21.0261H15.9191V23.4286H13.3674V21.0261ZM13.3674 26.8832H15.9191V29.2857H13.3674V26.8832ZM7.51077 15.1689H10.0625V17.5714H7.51077V15.1689ZM7.51077 21.0261H10.0625V23.4286H7.51077V21.0261ZM7.51077 26.8832H10.0625V29.2857H7.51077V26.8832ZM7.5854 32.7404H15.8445V38.5975H13.4422V35.1429H9.98774V38.5975H7.5854V32.7404Z" fill="#0177FB"/>
</svg>
