<svg id="Layer_1" height="512" viewBox="0 0 512 512" width="512" xmlns="http://www.w3.org/2000/svg" data-name="Layer 1"><path d="m180.628 19.935a19.95 19.95 0 0 1 19.929-19.935h110.88a19.951 19.951 0 0 1 19.935 19.935v16.293h-150.744zm-149.197 28.882h449.137a17.1 17.1 0 0 1 17.08 17.071v13.461h-483.296v-13.461a17.092 17.092 0 0 1 17.079-17.071zm369.293 445.621a19.937 19.937 0 0 1 -19.791 17.562h-249.871a19.933 19.933 0 0 1 -19.787-17.562l-43.111-359.377h375.667zm79.844-371.968h-449.137a17.093 17.093 0 0 1 -17.079-17.08v-13.45h483.3v13.45a17.1 17.1 0 0 1 -17.08 17.08zm-154.031 331.784a6.3 6.3 0 0 0 5.682 6.851 5.663 5.663 0 0 0 .589.021 6.294 6.294 0 0 0 6.265-5.718l24.206-262.6a6.29 6.29 0 1 0 -12.526-1.164zm-177.816-261.447 24.206 262.6a6.286 6.286 0 0 0 6.26 5.718 5.663 5.663 0 0 0 .589-.021 6.3 6.3 0 0 0 5.687-6.851l-24.216-262.61a6.29 6.29 0 1 0 -12.526 1.164zm100.979 262.937a6.3 6.3 0 0 0 12.591 0v-264.425a6.3 6.3 0 1 0 -12.591 0z" fill="#ed1c24" fill-rule="evenodd"/></svg>