<svg width="15" height="10" viewBox="0 0 15 10" fill="none" xmlns="http://www.w3.org/2000/svg">
<path fill-rule="evenodd" clip-rule="evenodd" d="M14.9569 5.20307C14.9569 5.20307 14.8173 5.51721 14.5325 5.96953C14.5325 5.96953 13.9713 6.86076 13.2286 7.60355C13.2286 7.60355 10.8321 10 7.5 10C7.5 10 4.16789 10 1.77145 7.60355C1.77145 7.60355 1.02865 6.86076 0.467509 5.96953C0.467509 5.96953 0.18271 5.5172 0.0430942 5.20307C-0.0143647 5.07379 -0.0143647 4.92621 0.0430943 4.79693C0.0430943 4.79693 0.182709 4.4828 0.467509 4.03047C0.467509 4.03047 1.02865 3.13924 1.77145 2.39645C1.77145 2.39645 4.1679 0 7.5 0C7.5 0 10.8321 0 13.2286 2.39645C13.2286 2.39645 13.9713 3.13924 14.5325 4.03047C14.5325 4.03047 14.8173 4.48279 14.9569 4.79693C15.0144 4.92621 15.0144 5.07379 14.9569 5.20307ZM13.6863 5.43672C13.6863 5.43672 13.8416 5.18992 13.9429 5C13.9429 5 13.8417 4.81008 13.6863 4.56328C13.6863 4.56328 13.1849 3.767 12.5214 3.10355C12.5214 3.10355 10.4179 1 7.5 1C7.5 1 4.58211 1 2.47855 3.10355C2.47855 3.10355 1.8151 3.76701 1.31374 4.56328C1.31374 4.56328 1.15835 4.81007 1.05706 5C1.05706 5 1.15835 5.18993 1.31374 5.43672C1.31374 5.43672 1.8151 6.23299 2.47855 6.89645C2.47855 6.89645 4.58211 9 7.5 9C7.5 9 10.4179 9 12.5214 6.89645C12.5214 6.89645 13.1849 6.233 13.6863 5.43672Z" fill="black"/>
<path fill-rule="evenodd" clip-rule="evenodd" d="M7.5 2C7.5 2 8.74264 2 9.62132 2.87868C9.62132 2.87868 10.5 3.75736 10.5 5C10.5 5 10.5 6.24264 9.62132 7.12132C9.62132 7.12132 8.74264 8 7.5 8C7.5 8 6.25736 8 5.37868 7.12132C5.37868 7.12132 4.5 6.24264 4.5 5C4.5 5 4.5 3.75736 5.37868 2.87868C5.37868 2.87868 6.25736 2 7.5 2ZM7.5 3C7.5 3 6.67157 3 6.08579 3.58579C6.08579 3.58579 5.5 4.17157 5.5 5C5.5 5 5.5 5.82843 6.08579 6.41421C6.08579 6.41421 6.67157 7 7.5 7C7.5 7 8.32843 7 8.91421 6.41421C8.91421 6.41421 9.5 5.82843 9.5 5C9.5 5 9.5 4.17157 8.91421 3.58579C8.91421 3.58579 8.32843 3 7.5 3Z" fill="black"/>
</svg>
